<?xml version="1.0" encoding="UTF-8" standalone="no"?>
<!-- Created with Inkscape (http://www.inkscape.org/) -->

<svg
   version="1.1"
   id="svg1"
   width="819.20001"
   height="819.20001"
   viewBox="0 0 819.20001 819.20001"
   xmlns="http://www.w3.org/2000/svg"
   xmlns:svg="http://www.w3.org/2000/svg">
  <defs
     id="defs1" />
  <g
     id="g1"
     style="fill:#3e8c76;fill-opacity:1"
     transform="matrix(1.8551632,0,0,1.8551632,-350.27485,-350.27486)">
    <path
       style="fill:#3e8c76;fill-opacity:1"
       d="m 435.97235,625.15565 c -5.9887,-1.75499 -15.1525,-5.85699 -23.6,-10.5641 -15.1305,-8.43099 -21.4133,-9.82352 -30.27281,-6.70966 -11.47249,4.03226 -17.10661,4.89237 -36.52717,5.5763 -13.62277,0.47974 -20.78278,1.09421 -26.00001,2.23132 -9.02058,1.96605 -14,2.60177 -14,1.78735 0,-0.87256 9.30537,-6.79514 13.2,-8.4014 1.76,-0.72587 9.70211,-3.06602 17.64912,-5.20033 21.91456,-5.88555 28.29143,-8.81512 35.28555,-16.21037 5.62523,-5.94785 8.68255,-12.42967 11.92865,-25.28991 7.01897,-27.8073 10.21337,-63.5436 7.19717,-80.51583 -3.34702,-18.83354 -13.05286,-29.22371 -27.26048,-29.1825 -9.36672,0.0272 -15.53603,2.79729 -33.20001,14.90733 -11.66157,7.99492 -24.28345,12.13753 -33.55263,11.01224 -14.07721,-1.70897 -24.31561,-12.30888 -24.23559,-25.09131 0.0188,-3.01141 0.59312,-6.66622 1.32128,-8.40895 0.70837,-1.69536 1.17213,-3.1983 1.03057,-3.33985 -0.14156,-0.14156 -2.57628,0.12378 -5.4105,0.58963 -11.97478,1.96828 -25.6547,-1.54418 -36.12391,-9.27519 -17.73376,-13.09554 -19.03738,-38.89542 -2.72137,-53.85863 3.87819,-3.55665 14.00576,-8.9408 16.86958,-8.96843 1.31629,-0.0127 1.005,-0.53365 -1.64907,-2.75973 -15.27893,-12.8151 -18.56115,-35.7126 -7.49471,-52.28472 5.33797,-7.99367 11.22899,-12.24871 22.73298,-16.41986 5.18926,-1.88154 8.13515,-2.4038 15.23337,-2.70068 7.79118,-0.32586 9.51077,-0.13999 15,1.62133 3.41,1.09416 6.2,1.68886 6.2,1.32156 0,-0.3673 -0.40576,-0.91859 -0.90169,-1.2251 -0.49593,-0.3065 -2.69502,-4.31144 -4.88686,-8.89986 -7.08956,-14.84135 -7.89427,-27.94432 -2.43294,-39.61491 4.3353,-9.26433 11.02778,-14.95391 21.33429,-18.13727 11.80908,-3.64745 25.22407,-0.92758 35.80233,7.25889 3.52092,2.72482 3.88488,2.76731 3.88488,0.45346 0,-3.21845 3.10845,-12.85297 6.12356,-18.97972 3.99832,-8.12468 12.86168,-17.00654 20.67644,-20.71962 8.14453,-3.86977 16.33678,-5.78812 24.79998,-5.80732 16.8233,-0.0382 30.6971,5.89885 40.2461,17.2226 9.6017,11.38624 12.3782,28.47648 6.6903,41.1809 l -1.5204,3.39592 -1.4408,-7.41776 c -3.7787,-19.45455 -15.3813,-31.13593 -34.4805,-34.7148 -18.9976,-3.55984 -36.29422,4.53663 -45.39376,21.24859 -4.40306,8.08656 -5.56566,13.85214 -5.1223,25.40271 l 0.37651,9.80896 -3.46055,-5.15848 c -4.66457,-6.95323 -11.65948,-13.62668 -17.05333,-16.2696 -3.83201,-1.87765 -5.42894,-2.17632 -11.64126,-2.17727 -5.91886,-9e-4 -7.79696,0.31698 -10.55496,1.78646 -7.06281,3.7631 -12.16784,11.09444 -13.77346,19.78007 -2.68151,14.50559 0.44668,26.07449 11.57862,42.8209 5.03457,7.5738 7.86004,12.75644 7.27402,13.34245 -0.21307,0.21307 -2.41555,-1.26455 -4.89441,-3.2836 -14.03749,-11.4337 -33.84947,-15.26002 -47.57551,-9.18835 -8.78309,3.88518 -16.35929,12.21675 -18.80027,20.67471 -1.53057,5.30343 -1.6065,14.26417 -0.16654,19.65479 2.07341,7.762 6.69429,14.68165 13.63358,20.41595 l 3.85315,3.18406 h -5.99524 c -8.52855,0 -13.64386,1.85507 -18.70365,6.7829 -3.13424,3.0525 -4.4309,5.06048 -5.4,8.3623 -3.01322,10.26641 -0.25074,21.26668 7.16152,28.51732 11.54776,11.29597 29.5167,12.97673 51.07787,4.77769 3.03309,-1.15339 5.88859,-1.97245 6.34556,-1.82012 0.45696,0.15232 -2.09284,2.72427 -5.66622,5.71545 -11.84072,9.91151 -15.43235,18.14874 -11.37825,26.09543 2.15838,4.23079 6.6927,7.09134 12.93574,8.16073 4.49191,0.76943 5.75016,0.66981 10.67043,-0.84481 3.06791,-0.9444 10.79802,-4.60819 17.17802,-8.14174 11.82303,-6.54817 21.01032,-10.10157 27.57653,-10.66588 2.01625,-0.17327 3.87444,-0.52357 4.1293,-0.77843 0.25487,-0.25487 -2.11735,-1.24727 -5.27159,-2.20534 -8.7704,-2.66393 -18.11199,-2.00801 -27.5071,1.93139 -9.17636,3.84768 -15.1682,5.22233 -19.72714,4.5258 -3.90929,-0.59727 -3.42914,-0.96371 3.03315,-2.31479 2.32823,-0.48677 6.61775,-2.32325 9.53225,-4.08107 2.91451,-1.75782 8.02959,-4.55072 11.36685,-6.20643 3.33727,-1.65572 6.20296,-3.08561 6.36821,-3.17753 0.16525,-0.0919 -0.86676,-1.14926 -2.29335,-2.34966 -1.42659,-1.2004 -5.78244,-6.20969 -9.67966,-11.13175 -8.10501,-10.23635 -11.2706,-13.2478 -16.36587,-15.56897 -4.197,-1.91195 -12.13754,-2.8377 -17.47494,-2.0373 -4.91431,0.73694 -4.09627,1.70044 1.98322,2.33588 4.84848,0.50676 14.33014,4.09173 14.33014,5.41814 0,1.08635 -5.63771,4.33242 -10.06804,5.79695 -9.79999,3.23957 -17.51114,3.14196 -25.59694,-0.32402 -3.60203,-1.54401 -12.70145,-8.4062 -16.27447,-12.27315 l -1.93945,-2.09899 h 2.81421 c 3.62732,0 9.81985,-2.15114 17.91722,-6.22402 13.14399,-6.61127 21.2694,-7.34185 30.90435,-2.77872 7.15488,3.38856 11.08224,6.80549 20.66694,17.98089 11.36132,13.24688 16.88679,17.17514 30.10019,21.39939 17.3517,5.54723 28.03125,11.57062 36.17038,20.40048 4.271,4.63353 4.6047,3.86384 3.3298,-7.68095 -1.5871,-14.37198 -5.1142,-24.50188 -12.36459,-35.5108 -10.60215,-16.09829 -28.66444,-25.17786 -56.4596,-28.38117 -9.5254,-1.09777 -22.69044,-3.61404 -27.16105,-5.19136 -8.79603,-3.10343 -19.1805,-12.41543 -23.62397,-21.18419 -2.05488,-4.05511 -4.85923,-13.15192 -5.50879,-17.86956 -0.3555,-2.58193 -0.21422,-2.98266 0.93762,-2.65943 1.9775,0.55493 11.74634,1.93363 17.75619,2.50598 16.04225,1.52778 24.6476,7.07644 30.91761,19.93539 1.91532,3.92807 3.48239,7.61497 3.48239,8.19313 0,1.28665 -6.30033,-0.98653 -17.90606,-6.46057 -4.34833,-2.05097 -8.11365,-3.52145 -8.36737,-3.26773 -0.77391,0.77391 6.31937,6.54733 12.75816,10.38423 9.07564,5.4082 18.30816,8.32948 36.91199,11.67939 9.19642,1.65596 22.18834,5.4958 27.20329,8.0401 1.65,0.83712 3,1.21667 3,0.84344 0,-0.37323 -2.75335,-4.77112 -6.11855,-9.7731 -8.95008,-13.30324 -12.04101,-20.30956 -15.87341,-35.98083 -2.12246,-8.67904 -2.54563,-9.31719 -8.29724,-12.5122 -18.52476,-10.2905 -24.20694,-20.24721 -23.09288,-40.46496 0.40254,-7.30523 3.97801,-22.26013 5.30817,-22.2022 0.26065,0.0114 1.12145,1.42603 1.9129,3.14372 1.9462,4.22387 6.2158,8.44394 13.38153,13.22632 7.86598,5.24972 13.68966,11.23705 16.4996,16.96328 2.11073,4.30136 2.27988,5.33847 2.27988,13.97938 0,5.13333 -0.27942,9.61275 -0.62093,9.95425 -1.13424,1.13424 -14.74118,-13.38381 -20.40379,-21.77001 -0.88894,-1.3165 -0.96083,-1.09358 -0.54262,1.68242 0.56594,3.75656 3.94021,10.08357 8.95681,16.79469 4.47157,5.982 7.26275,11.48196 11.84886,23.34799 3.69323,9.5558 7.83135,17.20542 10.72303,19.82236 0.90125,0.81562 1.63864,1.29431 1.63864,1.06375 0,-0.23056 0.53687,-3.49789 1.19306,-7.26074 1.98078,-11.35861 4.92167,-19.36169 13.58462,-36.96805 4.5464,-9.24 8.8926,-18.6 9.658,-20.8 2.083,-5.98641 2.5378,-21.21769 0.811,-27.15779 -0.7377,-2.5378 -1.5284,-4.42716 -1.757,-4.19857 -0.2286,0.22859 -0.5774,3.23728 -0.7751,6.68599 -0.6685,11.65854 -4.2985,23.01078 -9.4062,29.4164 l -1.82139,2.28426 -2.03242,-3.51514 c -3.22431,-5.57659 -6.11472,-13.56011 -7.12566,-19.68158 -1.63194,-9.88178 1.22377,-20.15243 8.07265,-29.03357 2.20556,-2.86 5.81242,-7.54 8.01522,-10.4 2.3871,-3.09935 4.5888,-7.07323 5.45,-9.83704 l 1.445,-4.63705 3.5773,3.83705 c 11.6369,12.48175 17.288,27.09511 16.5339,42.75576 -0.3522,7.31412 -0.6348,8.42644 -3.6843,14.50152 -1.969,3.92262 -5.8776,9.60768 -9.6787,14.07767 -5.7072,6.7116 -9.66,12.98104 -9.66,15.32152 0,1.09237 1.7401,0.15809 11.2,-6.01347 13.7735,-8.98572 22.4461,-20.20361 24.8985,-32.20591 1.2863,-6.29564 2.4552,-5.3808 2.4477,1.91587 -0.01,5.89863 -1.9214,12.51218 -5.287,18.25529 -2.339,3.99114 -11.4302,12.96235 -19.8145,19.55296 -17.8864,14.05988 -24.48793,31.00997 -20.187,51.83204 1.8662,9.03499 4.0501,14.40632 11.9714,29.4438 3.9402,7.48 7.9271,15.35988 8.8598,17.51086 l 1.6957,3.91086 2.5888,-5.11086 c 4.749,-9.37562 9.5681,-15.67992 18.6066,-24.34098 16.6447,-15.94958 18.6443,-20.26474 14.868,-32.08562 -2.3264,-7.28231 -2.3111,-14.13834 0.042,-18.65232 1.9246,-3.6924 6.4412,-9.63195 7.3244,-9.63195 0.3006,0 1.7703,2.41108 3.2662,5.35795 2.256,4.44453 2.7682,6.42323 3.0047,11.60668 0.2821,6.1861 0.2393,6.34445 -4.2672,15.79792 -2.5037,5.25206 -4.432,10.091 -4.285,10.75322 0.4071,1.83458 7.1017,-3.37241 11.4609,-8.9141 9.0145,-11.45999 12.7056,-25.50052 10.8711,-41.35367 -0.4551,-3.9336 -0.6632,-7.31631 -0.4624,-7.51713 0.2008,-0.20083 1.7173,2.47757 3.37,5.952 2.9444,6.19017 3.004,6.50203 2.9658,15.51713 -0.046,10.87514 -1.9329,18.72039 -6.6819,27.78328 -1.6764,3.1992 -2.7442,5.81673 -2.373,5.81673 0.3713,0 3.4105,-1.08666 6.7538,-2.41478 14.6528,-5.82071 27.7044,-18.3637 31.8674,-30.62561 1.4811,-4.36249 1.5113,-4.56017 0.6954,-4.55807 -0.33,8.5e-4 -1.8284,1.80386 -3.3297,4.00668 -3.8635,5.66858 -14.5524,15.46992 -15.595,14.30014 -0.6918,-0.77613 1.0623,-16.10043 2.2431,-19.59631 4.0114,-11.87626 18.9925,-22.86559 32.7575,-24.02915 l 5.9501,-0.50297 -1.4699,4.35393 c -0.8084,2.39467 -1.8649,8.23774 -2.3478,12.98461 -0.4828,4.74687 -1.4452,10.30712 -2.1385,12.3561 -2.7689,8.18272 -10.4019,17.08596 -18.675,21.78276 -2.657,1.50847 -9.0528,5.37005 -14.2129,8.58129 -5.16,3.21124 -13.7019,8.02569 -18.9819,10.69877 -23.6973,11.99717 -32.5879,18.75017 -41.0218,31.15888 -3.1584,4.64692 -6.8108,13.81737 -8.4051,21.10373 -1.468,6.70876 -2.5986,21.22088 -1.6477,21.149 0.371,-0.0281 2.0737,-1.73805 3.7836,-3.8 4.3487,-5.24379 10.3404,-9.55082 23.0875,-16.59586 14.1594,-7.82559 18.9262,-11.39106 26.2366,-19.62422 20.0235,-22.55124 28.8659,-27.91504 44.3669,-26.91313 7.3903,0.47767 12.2108,2.19588 20.8163,7.41977 8.1242,4.93172 12.2336,6.71944 15.5837,6.77944 l 2.8,0.0501 -6.0675,5.78539 c -10.5204,10.03108 -19.7264,13.73663 -32.8205,13.2107 -7.6666,-0.30793 -8.0878,-0.42682 -16.3909,-4.62587 -7.8493,-3.96958 -8.4036,-4.39929 -7.0216,-5.44306 4.3042,-3.25061 13.0387,-6.03542 22.1608,-7.06549 7.2031,-0.81337 4.2989,-2.23657 -5.2808,-2.58786 -14.2631,-0.52304 -20.4742,2.89234 -32.5339,17.88987 -3.9381,4.89743 -7.7194,9.36852 -8.4029,9.93575 -1.9498,1.61823 -1.4716,2.43543 1.4252,2.43543 6.6562,0 16.9243,5.12488 29.2675,14.60763 l 5.2646,4.04456 -3.5654,-0.47216 c -1.961,-0.25969 -7.181,-2.27246 -11.6,-4.47283 -10.3488,-5.15303 -14.5996,-6.5072 -20.4261,-6.5072 -6.3293,0 -19.2299,4.71544 -19.2012,7.01844 0,0.31986 2.6626,0.634 5.9081,0.69809 8.1779,0.1615 13.3531,1.86571 27.6846,9.11667 17.4456,8.82645 23.0544,10.57963 32.7504,10.23706 9.3723,-0.33113 13.1558,-1.96638 20.5471,-8.88053 l 5.1025,-4.77318 v 2.73465 c 0,6.13718 -7.2823,16.34764 -14.6771,20.57848 -14.5726,8.33761 -31.1037,6.01035 -50.428,-7.09927 -23.1793,-15.72498 -38.6318,-14.52421 -48.3287,3.75549 -4.1607,7.84333 -5.1989,14.766 -5.2514,35.0141 -0.1136,43.88528 5.6293,69.7858 18.5751,83.77297 7.55,8.15736 15.6188,12.33911 30.5101,15.81228 14.0981,3.28814 19.577,4.94588 25.2287,7.63343 6.3244,3.00748 7.9869,4.5104 8.8288,7.98132 0.5586,2.3031 0.5208,2.34669 -0.9377,1.07951 -0.8359,-0.72627 -2.9598,-1.7249 -4.7198,-2.21917 -5.655,-1.58814 -20.4593,-3.26034 -28.8643,-3.26034 -18.2956,0 -34.1076,-2.97936 -46.411,-8.74495 -3.8204,-1.79028 -7.089,-3.25505 -7.2635,-3.25505 -0.6341,0 1.6606,3.6998 4.9923,8.04935 3.8026,4.96428 9.9681,10.01843 15.836,12.98159 2.1392,1.08024 3.5198,2.19252 3.068,2.47172 -1.7581,1.08658 -10.3006,1.20702 -13.7575,0.19397 z m 101.2,-184.08229 c -7.2976,-1.60921 -13.8405,-4.28229 -19.7047,-8.0503 -4.9504,-3.18082 -7.1789,-5.16404 -5.8027,-5.16404 0.3229,0 3.3142,0.95473 6.6472,2.12162 11.5709,4.0509 28.2697,3.32314 38.8756,-1.69426 6.5113,-3.08031 13.4223,-9.92459 16.7618,-16.59993 2.5527,-5.10262 2.8228,-6.27978 2.8228,-12.30491 0,-10.75675 -3.2804,-17.35465 -12.0909,-24.31901 -2.1146,-1.67146 -6.4692,-4.06603 -9.6769,-5.32126 -5.446,-2.13114 -6.5473,-2.27672 -16.6322,-2.1986 -9.0507,0.0701 -11.9339,0.41421 -17.8,2.12435 -3.85,1.12238 -7,1.78535 -7,1.47327 0,-0.85519 4.31,-4.71773 13.2394,-11.86497 10.1716,-8.14148 20.977,-19.58283 24.1598,-25.58186 7.0498,-13.28737 6.519,-26.69383 -1.4144,-35.72954 -7.8663,-8.95922 -25.8156,-11.60027 -38.1846,-5.61848 -5.4653,2.64306 -12.4732,9.08552 -16.44,15.11357 l -3.1587,4.8 0.4724,-4.29209 c 0.6237,-5.66566 2.6811,-9.721 9.0025,-17.74433 6.4838,-8.22962 7.9826,-11.12839 9.2166,-17.82586 0.7748,-4.20498 0.7661,-6.22869 -0.043,-9.91081 -1.2805,-5.82821 -3.1052,-8.82912 -8.0984,-13.31846 -9.1355,-8.21356 -22.5826,-8.82839 -37.433,-1.71151 -3.7169,1.78126 -5.7187,2.385 -5.7187,1.72476 0,-1.93115 5.4368,-10.03534 8.9121,-13.28453 4.7145,-4.40774 9.2294,-6.98177 14.7837,-8.42849 11.33,-2.9511 24.5632,-0.3665 33.6743,6.57696 3.28,2.49965 7.6127,9.08811 9.3099,14.15687 2.3413,6.99253 1.3717,18.17792 -2.1955,25.32858 -0.7103,1.42375 -1.1993,2.68069 -1.0868,2.79319 0.1125,0.1125 2.184,-0.33148 4.6034,-0.98663 5.7388,-1.55399 19.4522,-0.99978 25.5989,1.03456 6.0994,2.01863 13.403,7.13114 16.9827,11.88779 9.2577,12.30143 8.8942,31.19226 -0.8886,46.17799 -4.3039,6.59292 -13.2429,16.04192 -18.4125,19.46301 -1.8049,1.19439 -3.2798,2.39378 -3.2777,2.66531 0,0.27153 2.9721,0.57077 6.6,0.66497 8.6067,0.22349 13.1995,1.32668 20.9961,5.04324 7.3259,3.49215 14.9299,9.95435 18.7882,15.96707 7.515,11.71105 7.5111,27.44304 -0.01,40.13471 -10.5017,17.7218 -34.723,27.47333 -56.3783,22.69805 z m -173.19998,-22.0185 c -13.06684,-2.23577 -19.09535,-6.8188 -23.14559,-17.59584 -0.90948,-2.42 -1.65379,-5.19304 -1.65401,-6.16231 -3.8e-4,-1.64469 0.27992,-1.73497 4.1996,-1.35261 10.22176,0.9971 16.66794,3.72427 21.8584,9.24757 4.04789,4.30747 5.24303,6.25461 7.4068,12.06735 l 1.71234,4.6 -3.38877,-0.0941 c -1.86383,-0.0517 -5.00877,-0.37128 -6.98877,-0.71006 z m 80.44598,-1.8054 c 2.504,-11.40068 10.6796,-18.52349 23.4207,-20.40479 l 5.0668,-0.74814 -0.53,2.88124 c -2.0955,11.39233 -10.7242,18.2961 -25.458,20.36866 l -3.0544,0.42967 z m -36.6193,-37.52861 c -2.6269,-7.08527 -3.8267,-13.56425 -3.8267,-20.66356 0,-11.83379 4.7022,-20.04237 16.4955,-28.79613 4.3475,-3.22697 8.8709,-6.75238 10.0522,-7.83423 l 2.1476,-1.967 1.2613,3.01875 c 4.6742,11.18679 4.8543,23.92752 0.4829,34.15369 -2.9285,6.85067 -8.8938,13.38929 -15.1071,16.55907 l -3.3962,1.73261 0.5158,-4.23252 c 0.2836,-2.32788 1.1979,-7.45566 2.0318,-11.39506 0.8339,-3.9394 1.5162,-7.49348 1.5162,-7.89796 0,-1.65724 -2.4962,1.50949 -4.457,5.65417 -3.2664,6.90467 -4.549,11.98552 -5.0659,20.06817 l -0.4771,7.46184 z M 225.78523,369.3812 c -0.84885,-0.31401 -2.54941,-1.76655 -3.77903,-3.22787 l -2.23566,-2.65693 2.30091,-0.98261 c 3.32468,-1.41981 6.34344,-1.26966 9.7863,0.48675 3.94881,2.01454 5.47508,3.81801 4.25972,5.03336 -1.16188,1.16188 -8.31279,2.09434 -10.33224,1.3473 z m 118.22999,-11.70439 c -4.94943,-1.74745 -10.68642,-7.67535 -12.25664,-12.66449 -1.94241,-6.1717 -2.30321,-8.35331 -1.38149,-8.35331 1.59319,0 11.60676,5.4403 13.84288,7.52073 2.50816,2.33353 4.94213,7.33747 5.77821,11.87927 0.64478,3.50263 -0.0853,3.70004 -5.98296,1.6178 z m 230.94473,-3.48824 c -1.6569,-0.39034 -4.4874,-1.46217 -6.2901,-2.38185 l -3.2777,-1.67213 2.2901,-2.47646 c 6.4493,-6.97423 10.8101,-9.35868 17.3695,-9.49767 5.492,-0.11636 14.9206,2.49086 14.9206,4.12586 0,0.9121 -5.7413,6.74619 -8.8,8.94226 -2.7287,1.95914 -8.8485,3.91159 -11.7543,3.75007 -0.7951,-0.0442 -2.8013,-0.39973 -4.4581,-0.79008 z m -121.7983,-52.49732 c 1.565,-2.62712 5.0345,-7.37721 7.71,-10.55576 2.6756,-3.17855 4.6399,-6.00397 4.3651,-6.27871 -0.7684,-0.76845 -7.1355,2.58673 -10.478,5.52148 -3.2566,2.85935 -9.1864,10.50628 -9.1864,11.84659 0,0.45879 -0.3545,0.83416 -0.7878,0.83416 -1.1033,0 -0.1149,-8.93946 1.6141,-14.59851 2.8982,-9.48575 9.92,-17.22021 18.5729,-20.45767 2.3114,-0.86481 7.3258,-2.15762 11.1431,-2.87291 3.8173,-0.7153 8.4069,-1.8179 10.1991,-2.45024 l 3.2586,-1.14969 v 5.83654 c 0,6.9157 -2.2397,16.23996 -5.1364,21.38353 -2.9947,5.31765 -10.0104,11.59375 -16.1955,14.48812 -4.1288,1.9321 -6.7772,2.58437 -11.6349,2.86558 l -6.2893,0.36408 z M 273.17236,288.92134 c -7.34749,-1.61678 -12.60448,-5.57838 -15.49608,-11.67769 -1.29974,-2.74155 -2.48483,-6.0616 -2.63354,-7.37789 -0.26359,-2.33317 -0.19003,-2.38786 2.92962,-2.17841 9.79629,0.65774 15.36463,2.97309 19.90389,8.2762 2.5017,2.92267 6.09611,10.42592 6.09611,12.72547 0,0.75697 -7.66628,0.92188 -10.8,0.23232 z m 185.15189,-59.64087 c -2.5976,-9.64682 -0.2042,-17.36219 6.8528,-22.09079 l 3.9837,-2.66933 0.9697,2.26933 c 1.315,3.07731 1.2909,12.52805 -0.04,15.69503 -1.2359,2.94102 -5.4932,7.37516 -8.6863,9.04713 -2.1549,1.12836 -2.1736,1.1147 -3.08,-2.25137 z"
       id="path8" />
  </g>
</svg>
